<?xml version="1.0" encoding="UTF-8"?>
<svg width="1071px" height="404px" viewBox="0 0 1071 404" version="1.1" xmlns="http://www.w3.org/2000/svg" xmlns:xlink="http://www.w3.org/1999/xlink">
    <!-- Generator: Sketch 51.3 (57544) - http://www.bohemiancoding.com/sketch -->
    <title>logo_en_ae</title>
    <desc>Created with Sketch.</desc>
    <defs>
        <polygon id="path-1" points="0.5 404.5 1071.75 404.5 1071.75 0.75 0.5 0.75"></polygon>
    </defs>
    <g id="Page-1" stroke="none" stroke-width="1" fill="none" fill-rule="evenodd">
        <g id="logo_en_ae" transform="translate(-24.000000, -40.000000)">
            <polygon id="Shape" points="0 0 582 0 582 402 0 402"></polygon>
            <g id="Layer-1" transform="translate(23.000000, 39.000000)">
                <g id="Clipped">
                    <g id="Group-Clipped">
                        <mask id="mask-2" fill="white">
                            <use xlink:href="#path-1"></use>
                        </mask>
                        <g id="path-1"></g>
                        <g id="Group" mask="url(#mask-2)">
                            <g transform="translate(1.000000, 0.000000)" id="Shape">
                                <g transform="translate(535.500000, 202.500000) scale(-1, 1) rotate(-180.000000) translate(-535.500000, -202.500000) translate(0.500000, 0.500000)">
                                    <path d="M910.0475,299.40375 C902.54125,282.16375 886.1475,269.37875 863.07625,269.37875 C826.37625,269.37875 810.5325,299.40375 810.2575,321.91625 L810.2575,322.19125 C810.2575,350.54625 830.82,375.56625 862.51625,375.56625 C886.70375,375.56625 903.65375,361.94875 910.88375,344.435 C914.2175,337.48 915.60875,329.69375 915.33125,321.9175 C915.0525,314.13375 913.385,306.345 910.04875,299.405 L910.0475,299.40375 Z M943.96625,398.5125 C943.96625,401.1625 941.81625,403.3225 939.15625,403.3225 L919.8875,403.3225 C917.23375,403.3225 915.05,401.16875 915.05,398.5125 L915.05,371.395 C908.10625,385.85 888.9275,402.5325 858.9,402.5325 C814.9825,402.5325 781.34375,368.615 781.34375,322.4725 C781.34375,280.2175 810.25625,242.41625 858.89875,242.41625 C882.8075,242.41625 904.48875,252.97875 915.04875,273.26625 L915.04875,247.295 C915.0575,244.64875 917.2325,242.485 919.88625,242.485 L939.15375,242.485 C941.8125,242.485 943.96375,244.635 943.96375,247.295 L943.96375,398.5125 L943.96625,398.5125 Z M314.8125,387.2375 C303.69125,398.6375 288.1225,402.53125 274.22,402.53125 C257.82,402.53125 243.92,396.41 234.19875,386.685 C228.9075,381.40625 225.85625,376.12 223.34875,371.66875 C221.68,374.45375 217.51125,382.51625 213.62375,386.40375 C203.06125,398.3575 188.60625,402.53125 174.7075,402.53125 C152.745,402.53125 135.2325,389.46875 128.8325,376.67625 L128.84875,398.51375 C128.84875,401.16375 126.69125,403.32375 124.04,403.32375 L106.405,403.32375 C103.74625,403.32375 101.605,401.165 101.605,398.51375 L101.605,247.295 C101.605,244.63625 103.74625,242.485 106.405,242.485 L125.67,242.485 C128.3175,242.485 130.4925,244.64375 130.505,247.295 L130.505,329.695 C130.505,341.9325 133,352.4975 138.5625,360.55125 C143.575,368.89875 153.5825,375.56875 167.2075,375.28625 C181.38,375.01125 190.27375,369.16875 195.83,360.27875 C200.8425,351.94125 202.22375,342.76875 201.95,330.25625 L201.95,247.66875 C201.94,247.5475 201.9125,247.41875 201.9125,247.29625 C201.9125,244.6375 204.0625,242.48625 206.7175,242.48625 L226.73,242.48625 L226.7375,242.53125 C229.2025,242.73375 231.1525,244.77875 231.1525,247.29625 C231.1525,247.34625 231.14,247.39625 231.14,247.45625 L231.14,330.25625 C231.14,343.04375 231.975,351.38125 238.08625,360.8275 C243.64375,370.00875 254.48625,375.2875 267.27125,375.2875 C280.8925,375.2875 288.95875,370.56625 294.23125,362.775 C300.90625,354.1625 302.58125,341.65 302.58125,329.1425 L302.58125,249.475 L302.56,247.295 C302.56,244.63625 304.71625,242.485 307.3725,242.485 L326.86,242.485 C329.42625,242.5775 331.485,244.70125 331.485,247.295 L331.485,330.255 C331.485,359.1675 328.1425,373.625 314.81,387.2375 L314.8125,387.2375 Z M478.48125,299.40375 C470.9775,282.16375 454.57375,269.37875 431.49875,269.37875 C394.81625,269.37875 378.97125,299.40375 378.68625,321.91625 L378.68625,322.19125 C378.68625,350.54625 399.255,375.56625 430.9525,375.56625 C455.1375,375.56625 472.09,361.94875 479.3125,344.435 C482.6575,337.48 484.0375,329.69375 483.7625,321.9175 C483.49,314.13375 481.8175,306.345 478.48125,299.405 L478.48125,299.40375 Z M512.39375,398.5125 C512.39375,401.1625 510.24375,403.3225 507.58125,403.3225 L488.325,403.3225 C485.6775,403.3225 483.525,401.17625 483.51875,398.52 L483.49,398.5125 L483.49,371.395 C476.54,385.85 457.36,402.5325 427.33125,402.5325 C383.40875,402.5325 349.775,368.615 349.775,322.4725 C349.775,280.2175 378.6875,242.41625 427.33125,242.41625 C451.24,242.41625 472.91875,252.97875 483.49,273.26625 L483.49,247.295 C483.5025,244.64875 485.6775,242.485 488.325,242.485 L507.5825,242.485 C510.2425,242.485 512.3925,244.635 512.3925,247.295 L512.3925,398.5125 L512.39375,398.5125 Z M633.485,247.295 C633.485,244.63625 635.645,242.485 638.2975,242.485 L658.31,242.485 C660.785,242.6875 662.73,244.77625 662.73,247.295 L662.73,247.3825 L662.705,330.25375 C662.705,343.04125 663.54,351.37875 669.6675,360.82625 C675.2175,370.0075 686.0625,375.28625 698.85,375.28625 C712.4775,375.28625 720.5325,370.565 725.8125,362.77375 C732.4875,354.16125 734.16,341.64875 734.16,329.14125 L734.1475,247.29625 C734.1475,244.6375 736.29375,242.48625 738.95375,242.48625 L758.43625,242.48625 C761.00625,242.57875 763.05625,244.70125 763.05625,247.29625 L763.05625,330.255 C763.05625,359.1675 759.72625,373.625 746.39,387.23875 C735.26875,398.63875 719.7,402.5325 705.8025,402.5325 C689.4025,402.5325 675.49625,396.41125 665.77,386.68625 C660.4925,381.4075 657.42625,376.12125 654.9325,371.67 C653.26125,374.455 649.0925,382.5175 645.20375,386.405 C634.64125,398.35875 620.1825,402.5325 606.2825,402.5325 C584.325,402.5325 566.8075,389.4675 560.4075,376.6775 L560.42375,398.515 C560.42375,398.545 560.42375,398.4775 560.42375,398.515 C560.42375,401.165 558.2775,403.325 555.61375,403.325 L537.97875,403.325 C535.3325,403.325 533.17875,401.16625 533.17875,398.515 L533.17875,247.295 C533.17875,244.63625 535.3325,242.485 537.98625,242.485 L557.24875,242.485 C559.88625,242.485 562.07125,244.64375 562.07875,247.295 L562.07875,329.6925 C562.07875,341.9325 564.585,352.49625 570.14125,360.55125 C575.14875,368.8975 585.1575,375.5675 598.77875,375.28625 C612.9475,375.00875 621.85,369.16875 627.4075,360.27875 C632.41125,351.93875 633.8075,342.76875 633.525,330.25375 L633.485,247.29625 L633.485,247.295 Z M1020.3525,338.27125 C1004.22375,342.725 993.3925,348.28125 992.8275,360.23375 C992.5575,370.24625 1000.3375,379.6925 1014.5175,379.6925 C1027.4225,379.935 1034.5675,373.135 1036.1425,363.5975 C1036.1425,363.575 1036.15125,363.575 1036.15875,363.555 C1036.48125,361.21 1038.475,359.3975 1040.905,359.3975 L1059.74125,359.3975 C1062.39625,359.3975 1064.55,361.5475 1064.55,364.20625 C1064.55,364.34375 1064.5325,364.635 1064.525,364.69375 C1064.5125,364.7775 1064.41625,365.24375 1064.37875,365.415 C1059.47125,394.2525 1034.33875,403.32375 1014.79625,403.32375 C987.275,403.32375 963.92125,386.0825 963.92125,357.4525 C964.2,334.66 980.875,324.64875 1002,318.2625 C1028.9625,309.3625 1040.36,304.36 1040.64625,289.35375 C1040.64625,276.56 1029.80375,266.835 1015.90125,266.835 C1005.90125,266.835 992.60125,272.04125 989.7175,287.2425 C989.34875,289.5425 987.38,291.295 984.9875,291.295 L965.81,291.295 C963.155,291.295 961.00125,289.145 961.00125,286.4875 C961.00125,286.255 961.0425,286.0325 961.07625,285.80875 L961.16,285.34125 C965.545,255.26 993.15625,243.2075 1015.635,243.2075 C1045.6475,243.2075 1070.11,263.22375 1069.5575,292.6875 C1068.72,325.21 1043.42875,331.88125 1020.35375,338.27125 L1020.3525,338.27125 Z M317.87125,137.935 C317.87125,110.0975 298.25875,87.47875 270.305,85.06375 L230.125,85.06375 L230.125,190.79125 L270.3325,190.79125 C302.0925,188.14125 317.87,161.6875 317.87,138.22125 L317.87,137.93625 L317.87125,137.935 Z M270.61125,217.9925 C270.51375,217.9925 270.40625,217.985 270.30375,217.985 L207.64625,217.985 C207.62125,217.985 207.59375,217.9925 207.56625,217.9925 C204.91375,217.9925 202.7575,215.8425 202.7575,213.18 C202.7575,212.995 202.755,212.83375 202.765,212.63875 L202.765,5.1625 C202.76,5.06875 202.7575,4.96875 202.7575,4.875 C202.7575,2.22 204.91375,0.06875 207.56625,0.06875 L225.34375,0.06875 C228.00625,0.06875 230.15,2.21875 230.15,4.875 C230.15,4.98375 230.15375,5.08375 230.1475,5.1925 L230.125,57.8725 L270.82875,57.8725 L270.82875,57.88125 L270.89125,57.88125 C316.20125,57.88125 347.04875,94.29875 347.04875,137.10375 C347.04875,174.6225 322.58875,217.99125 270.61125,217.99125 L270.61125,217.9925 Z M1025.1125,198.6525 C1028.69375,198.6525 1032.22,198.765 1032.22,202.79 C1032.215,206.09625 1029.46125,206.8625 1026.595,206.8625 L1021.25125,206.85625 L1021.25375,198.64625 L1025.11375,198.65125 L1025.1125,198.6525 Z M1021.25625,185.645 L1018.3375,185.645 L1018.33125,209.3375 L1027.4225,209.34125 C1032.7675,209.345 1035.1375,207.02875 1035.14,202.7875 C1035.14,198.6025 1032.39,196.72875 1029.1875,196.175 L1036.24375,185.65375 L1032.83125,185.65375 L1026.15625,196.17375 L1021.2525,196.17 L1021.25625,185.6425 L1021.25625,185.645 Z M1008.47125,197.48625 C1008.47375,187.67875 1015.865,179.915 1025.78375,179.91875 C1035.69625,179.9225 1043.08375,187.69375 1043.0775,197.5 C1043.07375,207.3125 1035.68625,215.0775 1025.77,215.075 C1015.8525,215.07 1008.4675,207.295 1008.47,197.4875 L1008.47125,197.48625 Z M1046.2725,197.5 C1046.27625,185.9875 1037.3525,177 1025.7825,176.9975 C1014.2075,176.99375 1005.2825,185.9725 1005.27625,197.485 C1005.2725,209.00375 1014.19875,217.98875 1025.7675,217.99375 C1037.33875,217.9975 1046.27,209.01875 1046.27375,197.50125 L1046.2725,197.5 Z" fill="#565655" fill-rule="nonzero"></path>
                                    <path d="M74.65,84.9925 C49.7875,84.9925 29.56,105.51375 29.56,130.73875 C29.56,158.3575 53.45,172.91375 72.3775,181.51625 L127.015,129.06625 C115.1375,103.95375 103.31875,84.99375 74.6525,84.99375 M181.97125,175.47625 L181.97125,175.57625 L181.95875,212.99875 C181.95875,215.64875 179.84625,217.8275 177.19625,217.8275 L175.28125,217.8275 C173.2975,217.8275 171.685,216.7375 170.95375,215.0275 L170.89125,214.89 L142.2375,153.015 L93.03125,200.13625 L92.28125,200.8675 L73.38125,218.7375 L73.10625,218.98375 C72.30375,219.73875 71.5,220.49 70.7125,221.2275 C59.87875,231.3775 51.31875,239.3925 51.31875,254.6775 C51.31875,269.58125 61.86,281.855 76.6,284.435 L76.685,284.45 C79.01,284.785 80.81625,286.75 80.81625,289.1625 L80.81625,305.65375 L80.80375,305.65875 C80.79875,308.30875 78.65375,310.46375 76.00375,310.46375 C75.90625,310.46375 75.82625,310.46125 75.70375,310.455 C45.80625,307.48 23.48625,283.525 23.48625,254.0175 C23.48625,230.415 35.765,217.05 51.81125,202.0225 L53.255,200.685 C17.4875,181.8425 0.08,158.71625 0.08,130.08125 C0.08,90.60625 32.7975,58.48125 73,58.48125 C91.525,58.48125 106.82125,63.55625 119.775,73.99 C129.98375,82.2125 138.705,93.67125 147.03,109.85 L173.72375,83.205 L173.7825,83.1525 C174.65375,82.28 175.82,81.81 177.14875,81.81 C179.80375,81.81 181.95875,83.96625 181.95875,86.6175 L181.95875,111.6175 C181.95875,113.0425 181.35125,114.2975 180.36875,115.18 L180.34625,115.2025 L162.37125,133.055 L181.46625,173.38375 C181.77875,174.02125 181.97,174.72375 181.97,175.4775" fill="#565655" fill-rule="nonzero"></path>
                                    <path d="M950.30875,152.94 C934.18,157.39375 923.34875,162.95 922.78375,174.9025 C922.51375,184.915 930.29375,194.36125 944.47375,194.36125 C957.3775,194.6025 964.52375,187.80375 966.09875,178.265 C966.09875,178.2425 966.1075,178.2425 966.115,178.2225 C966.43625,175.8775 968.43,174.065 970.86,174.065 L989.69625,174.065 C992.35,174.065 994.50375,176.215 994.50375,178.8725 C994.50375,179.01 994.485,179.3025 994.47625,179.36 C994.46375,179.44375 994.36875,179.91 994.33125,180.08125 C989.42375,208.91875 964.29125,217.99 944.74875,217.99 C917.2275,217.99 893.87375,200.7525 893.87375,172.12 C894.15375,149.3275 910.8275,139.3175 931.9525,132.93 C958.9175,124.03 970.3125,119.02625 970.59875,104.02125 C970.59875,91.22625 959.75625,81.50125 945.85375,81.50125 C935.85375,81.50125 922.55,86.70625 919.66875,101.9075 C919.30125,104.2075 917.33125,105.96 914.94,105.96 L895.76625,105.96 C893.11125,105.96 890.9575,103.81 890.9575,101.15125 C890.9575,100.92 890.9975,100.6975 891.03,100.4725 L891.115,100.005 C895.5,69.92375 923.11,57.8725 945.59,57.8725 C975.6025,57.8725 1000.065,77.8875 999.5125,107.35125 C998.675,139.87625 973.3825,146.545 950.30875,152.935 L950.30875,152.94 Z M840.01,114.07125 C832.50375,96.83 816.11,84.04625 793.03875,84.04625 C756.33875,84.04625 740.495,114.07125 740.22,136.58375 L740.22,136.85875 C740.22,165.21375 760.7825,190.23375 792.48,190.23375 C816.6675,190.23375 833.615,176.615 840.84625,159.10125 C844.18,152.14875 845.57125,144.36125 845.29375,136.58625 C845.015,128.80125 843.3475,121.01375 840.01125,114.07375 L840.01,114.07125 Z M873.92875,213.18125 C873.92875,215.83125 871.77875,217.99125 869.11625,217.99125 L849.85375,217.99125 C847.1975,217.99125 845.01625,215.83625 845.01625,213.18125 L845.01625,186.0625 C838.07,200.51625 818.89125,217.2 788.8625,217.2 C744.945,217.2 711.30625,183.28125 711.30625,137.14 C711.30625,94.885 740.21875,57.08375 788.86125,57.08375 C812.77,57.08375 834.4525,67.64375 845.01125,87.93375 L845.01125,61.9625 C845.02,59.315 847.195,57.1525 849.84875,57.1525 L869.115,57.1525 C871.775,57.1525 873.9275,59.3025 873.9275,61.9625 L873.9275,213.18 L873.92875,213.18125 Z M494.0375,114.07125 C486.53,96.83 470.13375,84.04625 447.0625,84.04625 C410.3625,84.04625 394.51875,114.07125 394.245,136.58375 L394.245,136.85875 C394.245,165.21375 414.8075,190.23375 446.50375,190.23375 C470.69125,190.23375 487.64125,176.615 494.87,159.10125 C498.20375,152.14875 499.595,144.36125 499.3175,136.58625 C499.04,128.80125 497.3725,121.01375 494.03625,114.07375 L494.0375,114.07125 Z M527.95125,213.18125 C527.95125,215.83125 525.80125,217.99125 523.14125,217.99125 L503.87625,217.99125 C501.22125,217.99125 499.03875,215.83625 499.03875,213.18125 L499.03875,186.0625 C492.09375,200.51625 472.91375,217.2 442.88625,217.2 C398.97,217.2 365.33125,183.28125 365.33125,137.14 C365.33125,94.885 394.24375,57.08375 442.88625,57.08375 C466.795,57.08375 488.4775,67.64375 499.03875,87.93375 L499.03875,61.9625 C499.04625,59.315 501.22125,57.1525 503.87625,57.1525 L523.14125,57.1525 C525.80125,57.1525 527.95125,59.3025 527.95125,61.9625 L527.95125,213.18 L527.95125,213.18125 Z M663.84625,137.935 C663.84625,110.0975 644.23375,87.47875 616.28,85.06375 L576.1,85.06375 L576.1,190.79125 L616.30875,190.79125 C648.06875,188.14125 663.84625,161.6875 663.84625,138.22125 L663.84625,137.93625 L663.84625,137.935 Z M616.58375,217.9925 C616.48875,217.9925 616.38375,217.985 616.28,217.985 L553.6225,217.985 C553.5975,217.985 553.57,217.9925 553.5425,217.9925 C550.8925,217.9925 548.73375,215.8425 548.73375,213.18 C548.73375,212.995 548.73125,212.83375 548.74125,212.63875 L548.74125,5.1625 C548.73625,5.06875 548.73375,4.96875 548.73375,4.875 C548.73375,2.22 550.89125,0.06875 553.5425,0.06875 L571.32,0.06875 C573.9825,0.06875 576.125,2.21875 576.125,4.875 C576.125,4.98375 576.12875,5.08375 576.1225,5.1925 L576.1,57.8725 L616.80375,57.8725 L616.80375,57.88125 L616.86625,57.88125 C662.17625,57.88125 693.025,94.29875 693.025,137.10375 C693.025,174.6225 668.565,217.99125 616.585,217.99125 L616.58375,217.9925 Z" fill="#565655" fill-rule="nonzero"></path>
                                </g>
                            </g>
                        </g>
                    </g>
                </g>
            </g>
        </g>
    </g>
</svg>